<svg width="120" height="64" viewBox="0 0 120 64" fill="none" xmlns="http://www.w3.org/2000/svg">
<g clip-path="url(#clip0_53_61)">
<path d="M59.8873 26.2782C56 26.2782 53.1972 28.8134 53.1972 32.6162C53.1972 36.419 56.3521 38.9542 60.2394 38.9542C62.588 38.9542 64.6584 38.0246 65.9401 36.4577L63.2465 34.9014C62.5352 35.6796 61.4542 36.1338 60.2394 36.1338C58.5528 36.1338 57.1197 35.2535 56.588 33.8451H66.4542C66.5317 33.4507 66.5775 33.0422 66.5775 32.6127C66.5775 28.8134 63.7746 26.2782 59.8873 26.2782ZM56.5563 31.3838C56.9965 29.9789 58.2007 29.0951 59.8838 29.0951C61.5704 29.0951 62.7746 29.9789 63.2113 31.3838H56.5563ZM97.8028 26.2782C93.9155 26.2782 91.1127 28.8134 91.1127 32.6162C91.1127 36.419 94.2676 38.9542 98.1549 38.9542C100.504 38.9542 102.574 38.0246 103.856 36.4577L101.162 34.9014C100.451 35.6796 99.3697 36.1338 98.1549 36.1338C96.4683 36.1338 95.0352 35.2535 94.5035 33.8451H104.37C104.447 33.4507 104.493 33.0422 104.493 32.6127C104.493 28.8134 101.69 26.2782 97.8028 26.2782ZM94.4754 31.3838C94.9155 29.9789 96.1197 29.0951 97.8028 29.0951C99.4894 29.0951 100.694 29.9789 101.13 31.3838H94.4754ZM80.7324 32.6162C80.7324 34.7289 82.1127 36.1373 84.2535 36.1373C85.7042 36.1373 86.7922 35.4789 87.3521 34.4049L90.0563 35.9648C88.9366 37.831 86.838 38.9542 84.2535 38.9542C80.3627 38.9542 77.5634 36.419 77.5634 32.6162C77.5634 28.8134 80.3662 26.2782 84.2535 26.2782C86.838 26.2782 88.9331 27.4014 90.0563 29.2676L87.3521 30.8274C86.7922 29.7535 85.7042 29.0951 84.2535 29.0951C82.1162 29.0951 80.7324 30.5035 80.7324 32.6162ZM109.775 22.4049V38.6021H106.606V22.4049H109.775ZM23.2359 20.6443L36.2465 43.1796H10.2253L23.2359 20.6443ZM55.7641 22.4049L46.007 39.3063L36.25 22.4049H39.9084L46.007 32.9683L52.1056 22.4049H55.7641ZM76.507 26.6303V30.0422C76.1549 29.9401 75.7817 29.8697 75.3803 29.8697C73.3345 29.8697 71.8591 31.2782 71.8591 33.3908V38.6021H68.6901V26.6303H71.8591V29.8697C71.8591 28.081 73.9401 26.6303 76.507 26.6303Z" fill="#006E96"/>
</g>
<defs>
<clipPath id="clip0_53_61">
<rect width="100" height="22.8873" fill="white" transform="translate(10 20.5563)"/>
</clipPath>
</defs>
</svg>
