<svg width="120" height="64" viewBox="0 0 120 64" fill="none" xmlns="http://www.w3.org/2000/svg">
<g clip-path="url(#clip0_53_3)">
<mask id="mask0_53_3" style="mask-type:luminance" maskUnits="userSpaceOnUse" x="10" y="11" width="100" height="42">
<path d="M110 11.5898H10V52.2395H110V11.5898Z" fill="white"/>
</mask>
<g mask="url(#mask0_53_3)">
<path d="M32.9367 52.0266V41.7859L33.1502 41.5723H35.2836L35.4971 41.7859V52.0266L35.2836 52.2402H33.1502L32.9367 52.0266Z" fill="#05BDBA"/>
<path d="M32.9367 22.0435V11.8034L33.1502 11.5898H35.2836L35.4971 11.8034V22.0435L35.2836 22.257H33.1502L32.9367 22.0435Z" fill="#05BDBA"/>
<path d="M23.6629 44.6442H23.3612L21.8529 43.1352V42.8334L25.375 39.3121L26.9722 39.3129L27.1865 39.5256V41.1229L23.6629 44.6442Z" fill="#05BDBA"/>
<path d="M23.6614 19.1859H23.3597L21.8514 20.6949V20.9966L25.3735 24.5179L26.9707 24.5172L27.185 24.3044V22.7072L23.6614 19.1859Z" fill="#05BDBA"/>
<path d="M10.2136 30.6348H24.7209L24.9345 30.8484V32.9816L24.7209 33.1953H10.2136L10 32.9816V30.8484L10.2136 30.6348Z" fill="#05BDBA"/>
<path d="M96.1326 30.6348H109.787L110.001 30.8484V32.9816L109.787 33.1953H95.2799L95.0662 32.9816L95.919 30.8484L96.1326 30.6348Z" fill="#05BDBA"/>
<path d="M51.4172 32.8256L51.2037 33.0393H44.5858L44.3723 33.2528C44.3723 33.6799 44.7994 34.9604 46.507 34.9604C47.1477 34.9604 47.7875 34.7469 48.0012 34.3198L48.2147 34.1063H50.7766L50.9901 34.3198C50.7766 35.6004 49.7096 37.5223 46.507 37.5223C42.8781 37.5223 41.1697 34.9604 41.1697 31.9721C41.1697 28.9839 42.8774 26.4221 46.2934 26.4221C49.7096 26.4221 51.4172 28.9839 51.4172 31.9721V32.8264V32.8256ZM48.2147 30.6909C48.2147 30.4773 48.0012 28.9832 46.2934 28.9832C44.5858 28.9832 44.3723 30.4773 44.3723 30.6909L44.5858 30.9044H48.0012L48.2147 30.6909Z" fill="#169795"/>
<path d="M57.3945 34.1063C57.3945 34.5332 57.608 34.7469 58.0352 34.7469H59.9562L60.1699 34.9604V37.0951L59.9562 37.3088H58.0352C56.1139 37.3088 54.4062 36.4545 54.4062 34.1063V29.4095L54.1926 29.196H52.6986L52.485 28.9824V26.8476L52.6986 26.6341H54.1926L54.4062 26.4206V24.4993L54.6197 24.2858H57.1816L57.3951 24.4993V26.4206L57.6088 26.6341H59.957L60.1707 26.8476V28.9824L59.957 29.196H57.6088L57.3951 29.4095V34.1063H57.3945Z" fill="#169795"/>
<path d="M65.293 37.3088H62.7311L62.5174 37.0951V22.5788L62.7311 22.3653H65.293L65.5065 22.5788V37.0951L65.293 37.3088Z" fill="#169795"/>
<path d="M71.0567 24.9272H68.4947L68.2811 24.7136V22.5788L68.4947 22.3653H71.0567L71.2701 22.5788V24.7136L71.0567 24.9272ZM71.0567 37.3088H68.4947L68.2811 37.0951V26.8484L68.4947 26.6349H71.0567L71.2701 26.8484V37.0951L71.0567 37.3088Z" fill="#169795"/>
<path d="M81.0899 22.5788V24.7136L80.8762 24.9272H78.9551C78.5279 24.9272 78.3143 25.1407 78.3143 25.5678V26.4221L78.5279 26.6356H80.6627L80.8762 26.8492V28.9839L80.6627 29.1975H78.5279L78.3143 29.411V37.0959L78.1008 37.3094H75.5389L75.3254 37.0959V29.411L75.1117 29.1975H73.6178L73.4041 28.9839V26.8492L73.6178 26.6356H75.1117L75.3254 26.4221V25.5678C75.3254 23.2195 77.033 22.3653 78.9543 22.3653H80.8754L81.0891 22.5788H81.0899Z" fill="#169795"/>
<path d="M88.9883 37.5223C88.134 39.657 87.2806 40.9377 84.2916 40.9377H83.2238L83.0103 40.724V38.5893L83.2238 38.3758H84.2916C85.3586 38.3758 85.5721 38.1621 85.7857 37.5215V37.308L82.3703 28.9824V26.8477L82.584 26.6341H84.5051L84.7187 26.8477L87.2807 34.1063H87.4941L90.056 26.8477L90.2695 26.6341H92.1908L92.4043 26.8477V28.9824L88.9891 37.5215L88.9883 37.5223Z" fill="#169795"/>
<path d="M36.4559 37.3088L36.2424 37.0951L36.2438 30.9096C36.2438 29.8426 35.8242 29.0153 34.5361 28.9884C33.8738 28.9712 33.116 28.9869 32.3065 29.0213L32.1856 29.1452L32.1871 37.0951L31.9735 37.3088H29.4124L29.1988 37.0951V26.7341L29.4124 26.5206L35.176 26.4683C38.0635 26.4683 39.232 28.4523 39.232 30.6916V37.0951L39.0186 37.3088H36.4559Z" fill="#169795"/>
</g>
</g>
<defs>
<clipPath id="clip0_53_3">
<rect width="100" height="40.8203" fill="white" transform="translate(10 11.5898)"/>
</clipPath>
</defs>
</svg>
