<svg width="137" height="64" viewBox="0 0 137 64" fill="none" xmlns="http://www.w3.org/2000/svg">
<path d="M76.5834 21.375H74.8117C74.7394 21.375 74.7033 21.4135 74.7033 21.4905V37.5892C74.7033 37.6662 74.7394 37.7047 74.8117 37.7047H76.5834C76.6557 37.7047 76.6919 37.6662 76.6919 37.5892V21.4905C76.6557 21.4135 76.6195 21.375 76.5834 21.375Z" fill="#005EFF"/>
<path d="M108.871 26.3818H110.859C110.895 26.3818 110.968 26.4588 110.968 26.4973V28.3845C110.968 28.4615 110.932 28.5 110.859 28.5H108.871C108.834 28.5 108.798 28.5385 108.798 28.577V37.5892C108.798 37.6662 108.762 37.7047 108.69 37.7047H106.918C106.846 37.7047 106.81 37.6662 106.81 37.5892V28.577C106.81 28.5385 106.774 28.5 106.737 28.5H104.785C104.713 28.5 104.677 28.4615 104.677 28.3845V26.4973C104.677 26.4203 104.713 26.3818 104.785 26.3818H106.737C106.774 26.3818 106.81 26.3432 106.81 26.3047V21.4905C106.81 21.4135 106.846 21.375 106.918 21.375H108.69C108.762 21.375 108.798 21.4135 108.798 21.4905V26.3047C108.798 26.3432 108.834 26.3818 108.871 26.3818Z" fill="#005EFF"/>
<path d="M112.739 22.7615H114.511C114.583 22.7615 114.619 22.8001 114.619 22.8771V24.7642C114.619 24.8413 114.583 24.8798 114.511 24.8798H112.739C112.667 24.8798 112.631 24.8413 112.631 24.7642V22.8771C112.631 22.8001 112.667 22.7615 112.739 22.7615Z" fill="#005EFF"/>
<path d="M112.739 26.3818H114.511C114.583 26.3818 114.619 26.4589 114.619 26.4974V37.5892C114.619 37.6663 114.583 37.7048 114.511 37.7048H112.739C112.667 37.7048 112.631 37.6663 112.631 37.5892V26.4974C112.631 26.4204 112.667 26.3818 112.739 26.3818Z" fill="#005EFF"/>
<path fill-rule="evenodd" clip-rule="evenodd" d="M131.649 35.7791C130.6 35.7791 129.696 35.3169 129.046 34.5467C129.009 34.4697 129.009 34.3926 129.082 34.3541L135.156 31.6197L136.928 30.8109C137 30.7724 137 30.7338 137 30.6953C136.421 28.0379 134.144 26.0737 131.468 26.1892C128.648 26.3048 126.298 28.7311 126.189 31.7352C126.045 35.0859 128.539 37.8588 131.685 37.8588C133.963 37.8588 135.915 36.3568 136.747 34.2386C136.783 34.1615 136.747 34.0845 136.674 34.0845L134.903 33.7379C134.867 33.7379 134.794 33.7379 134.794 33.8149C134.144 34.9703 132.987 35.7791 131.649 35.7791ZM131.649 28.3075C132.697 28.3075 133.637 28.8082 134.252 29.5785C134.288 29.6555 134.288 29.7325 134.216 29.771C134.216 29.771 128.359 32.4285 128.286 32.467C128.214 32.5055 128.142 32.4285 128.142 32.39V32.0819C128.105 29.9636 129.696 28.3075 131.649 28.3075Z" fill="#005EFF"/>
<path d="M124.201 26.3818H125.936C126.009 26.3818 126.045 26.4589 125.972 26.5359L122.393 37.6278C122.357 37.6663 122.321 37.7048 122.284 37.7048H119.826C119.754 37.7048 119.717 37.6663 119.717 37.6278L116.138 26.5359C116.138 26.4589 116.174 26.3818 116.246 26.3818H117.982C118.054 26.3818 118.09 26.4204 118.09 26.4589L120.911 35.2784C120.983 35.471 121.2 35.471 121.272 35.2784L124.092 26.4589C124.128 26.4204 124.165 26.3818 124.201 26.3818Z" fill="#005EFF"/>
<path d="M99.2532 35.779C97.0838 35.779 95.3845 33.6993 95.7822 31.3115C95.9991 30.002 97.2284 28.6541 98.4577 28.3845C99.7955 28.0764 101.061 28.577 101.856 29.5399C101.893 29.5784 101.965 29.5784 102.001 29.5399L103.266 28.1919C103.303 28.1534 103.303 28.0764 103.266 28.0378C102.218 26.8054 100.663 26.0736 98.9639 26.1507C96.1799 26.3047 93.8659 28.7311 93.7213 31.6966C93.5767 35.0473 96.0714 37.8203 99.217 37.8203C100.808 37.8203 102.254 37.0885 103.266 35.9331C103.303 35.8946 103.303 35.8561 103.266 35.8176L102.001 34.4696C101.965 34.4311 101.893 34.4311 101.856 34.4696C101.242 35.3169 100.302 35.779 99.2532 35.779Z" fill="#005EFF"/>
<path fill-rule="evenodd" clip-rule="evenodd" d="M87.4301 35.779C86.3816 35.779 85.4777 35.3169 84.8269 34.5466C84.7907 34.4696 84.7907 34.3926 84.8631 34.354L90.9372 31.6196L92.7089 30.8108C92.7812 30.7723 92.7812 30.7338 92.7812 30.6953C92.2027 28.0378 89.9249 26.0736 87.2493 26.1892C84.4292 26.3047 82.079 28.7311 81.9706 31.7351C81.826 35.0858 84.3207 37.8588 87.4663 37.8588C89.7441 37.8588 91.6965 36.3567 92.5281 34.2385C92.5643 34.1615 92.5281 34.0844 92.4558 34.0844L90.6842 33.7378C90.648 33.7378 90.5757 33.7378 90.5757 33.8149C89.9249 34.9703 88.7317 35.779 87.4301 35.779ZM87.4302 28.3074C88.4787 28.3074 89.4187 28.8081 90.0334 29.5784C90.0696 29.6554 90.0696 29.7324 89.9972 29.771C89.9972 29.771 84.14 32.4284 84.0676 32.4669C83.9953 32.5054 83.923 32.4284 83.923 32.3899V32.0818C83.8869 29.9635 85.4777 28.3074 87.4302 28.3074Z" fill="#005EFF"/>
<path d="M78.6804 21.375H80.4521C80.4882 21.375 80.5605 21.4135 80.5605 21.4905V37.5892C80.5605 37.6662 80.5244 37.7047 80.4521 37.7047H78.6804C78.6081 37.7047 78.572 37.6662 78.572 37.5892V21.4905C78.572 21.4135 78.6081 21.375 78.6804 21.375Z" fill="#005EFF"/>
<path fill-rule="evenodd" clip-rule="evenodd" d="M62.4102 32.0433C62.4102 28.8081 64.8688 26.1892 67.906 26.1892C70.9431 26.1892 73.4017 28.8081 73.4017 32.0433C73.4017 35.2784 70.9431 37.8973 67.906 37.8973C64.8688 37.8973 62.4102 35.2784 62.4102 32.0433ZM71.4131 32.0433C71.4131 30.002 69.8584 28.3074 67.9059 28.3074C65.9535 28.3074 64.3988 30.002 64.3988 32.0433C64.3988 34.0845 65.9897 35.7791 67.9059 35.7791C69.8222 35.7791 71.4131 34.0845 71.4131 32.0433Z" fill="#005EFF"/>
<path d="M54.3475 31.3115C53.9497 33.6993 55.6491 35.779 57.8184 35.779C58.8669 35.779 59.807 35.3169 60.4216 34.4696C60.4578 34.4311 60.5301 34.4311 60.5663 34.4696L61.8317 35.8176C61.8679 35.8561 61.8679 35.8946 61.8317 35.9331C60.8194 37.0885 59.3731 37.8203 57.7823 37.8203C54.6367 37.8203 52.1419 35.0473 52.2866 31.6966C52.4312 28.7311 54.7452 26.3047 57.5292 26.1507C59.2285 26.0736 60.7832 26.8054 61.8317 28.0378C61.8679 28.0764 61.8679 28.1534 61.8317 28.1919L60.5663 29.5399C60.5301 29.5784 60.4578 29.5784 60.4216 29.5399C59.6262 28.577 58.3608 28.0764 57.023 28.3845C55.7937 28.6541 54.5644 30.002 54.3475 31.3115Z" fill="#005EFF"/>
<path d="M41.9755 26.1892C40.8185 26.1892 39.4807 26.9595 38.8661 27.8838C38.8299 27.9608 38.6853 27.9223 38.6853 27.8453V26.4973C38.6853 26.4588 38.6491 26.3818 38.5768 26.3818H36.8052C36.769 26.3818 36.6967 26.4203 36.6967 26.4973V37.6277C36.6967 37.6662 36.7329 37.7433 36.8052 37.7433H38.5768C38.613 37.7433 38.6853 37.7047 38.6853 37.6277V32.0818C38.6853 29.9635 40.0231 28.4615 41.9393 28.4615C44.4702 28.4615 45.2295 30.2331 45.2295 32.3129V37.6277C45.2295 37.6662 45.2657 37.7433 45.338 37.7433H47.1096C47.1458 37.7433 47.2181 37.7047 47.2181 37.6277V32.3129C47.2542 29.0777 45.808 26.1892 41.9755 26.1892Z" fill="#005EFF"/>
<path fill-rule="evenodd" clip-rule="evenodd" d="M30.2971 35.779C29.2486 35.779 28.3447 35.3169 27.6939 34.5466C27.6577 34.4696 27.6577 34.3926 27.73 34.354L33.8042 31.6196L35.5759 30.8108C35.6482 30.7723 35.6482 30.7338 35.6482 30.6953C35.0697 28.0378 32.7919 26.0736 30.1163 26.1892C27.2962 26.3047 24.946 28.7311 24.8376 31.7351C24.6929 35.0858 27.1877 37.8588 30.3333 37.8588C32.6111 37.8588 34.5635 36.3567 35.3951 34.2385C35.4312 34.1615 35.3951 34.0844 35.3228 34.0844L33.5511 33.7378C33.515 33.7378 33.4427 33.7378 33.4427 33.8149C32.7919 34.9703 31.6349 35.779 30.2971 35.779ZM30.2971 28.3074C31.3456 28.3074 32.2857 28.8081 32.9003 29.5784C32.9365 29.6554 32.9365 29.7324 32.8642 29.771C32.8642 29.771 27.0069 32.4284 26.9346 32.4669C26.8623 32.5054 26.79 32.4284 26.79 32.3899V32.0818C26.79 29.9635 28.3808 28.3074 30.2971 28.3074Z" fill="#005EFF"/>
<path fill-rule="evenodd" clip-rule="evenodd" d="M15.0755 27.6527C15.8347 26.6899 16.9194 26.1122 18.2933 26.0737C20.9327 26.0352 23.319 28.0379 23.7529 30.8493C24.4037 34.5466 21.7282 37.7817 18.3657 37.7817C16.9194 37.7817 15.7986 37.1655 15.0393 36.2027C14.967 36.1257 14.8585 36.1642 14.8585 36.2797V42.6344C14.8585 42.7115 14.8224 42.75 14.7501 42.75H13.0146C12.9423 42.75 12.9061 42.7115 12.9061 42.6344V26.4973C12.9061 26.4203 12.9423 26.3818 13.0146 26.3818H14.7862C14.8585 26.3818 14.8947 26.4203 14.8947 26.4973V27.5757C14.8947 27.6912 15.0032 27.7297 15.0755 27.6527ZM14.9308 31.3115C14.5331 33.8533 16.594 36.0486 18.9803 35.625C20.4265 35.3554 21.6197 34.1229 21.8366 32.5824C22.2343 30.0405 20.1735 27.8453 17.7872 28.2689C16.3409 28.5 15.1839 29.7709 14.9308 31.3115Z" fill="#005EFF"/>
<path fill-rule="evenodd" clip-rule="evenodd" d="M6.39804 26.1892C3.36095 26.1892 0.902344 28.8081 0.902344 32.0433C0.902344 35.2784 3.36095 37.8973 6.39804 37.8973C9.43514 37.8973 11.8937 35.2784 11.8937 32.0433C11.8937 28.8081 9.43514 26.1892 6.39804 26.1892ZM6.39803 28.3074C8.35045 28.3074 9.90516 30.002 9.90516 32.0432C9.90516 34.0845 8.3143 35.7791 6.39803 35.7791C4.48177 35.7791 2.89091 34.0845 2.89091 32.0432C2.89091 30.002 4.48177 28.3074 6.39803 28.3074Z" fill="#005EFF"/>
</svg>
