<svg width="120" height="64" viewBox="0 0 120 64" fill="none" xmlns="http://www.w3.org/2000/svg">
<g clip-path="url(#clip0_53_43)">
<path opacity="0.7" d="M81.1865 29.4744V40.2041H77.6598V31.3065L81.1865 29.4744Z" fill="#E84031"/>
<path opacity="0.7" d="M33.9905 40.4739L42.2312 36.1647L41.2148 33.5333L35.7895 36.063L33.9905 40.4739Z" fill="#E84031"/>
<path opacity="0.5" d="M77.6607 31.2973L86.6017 26.7219L85.0911 24.1672L77.6607 27.7983V31.2973Z" fill="#E84031"/>
<path opacity="0.7" d="M52.4805 28.6252V40.2041H49.1173V23.7136L52.4805 28.6252Z" fill="#E84031"/>
<path opacity="0.5" d="M39.087 27.9849L33.9915 40.4739L31.3702 38.2176L37.4415 23.7136L39.087 27.9849Z" fill="#E84031"/>
<path d="M37.4415 23.7136H40.9155L47.3406 40.2041H43.7843L37.4415 23.7136Z" fill="#E84031"/>
<path d="M53.0006 23.7136L60.407 34.9801V40.2041L49.1173 23.7136H53.0006Z" fill="#E84031"/>
<path d="M70.2507 23.7136H66.7508V40.2069H70.2507V23.7136Z" fill="#E84031"/>
<path d="M77.6607 26.7219H72.2723V23.7136H84.8213L86.6008 26.7219H81.1865H77.6607Z" fill="#E84031"/>
<path opacity="0.5" d="M96.9351 33.9462V40.2032H93.4611V33.9462" fill="#E84031"/>
<path d="M93.4611 33.9462L99.3392 23.7136H103.03L96.9351 33.9462H93.4611Z" fill="#E84031"/>
<path opacity="0.7" d="M93.461 33.9462L87.4185 23.7136H91.2196L95.3126 30.7263L93.461 33.9462Z" fill="#E84031"/>
<path d="M18.3297 25.6169C18.3297 27.9129 19.7729 29.2794 22.663 30.0001L25.725 30.6976C28.4599 31.3148 30.1248 32.8477 30.1248 35.3451C30.1461 36.4326 29.7857 37.4951 29.1048 38.3534C29.1048 35.8616 27.7928 34.5154 24.6283 33.706L21.6218 33.0343C19.214 32.4947 17.3559 31.2345 17.3559 28.5218C17.3448 27.474 17.6867 26.4521 18.3297 25.6169Z" fill="#E84031"/>
<path opacity="0.7" d="M60.407 34.1329V23.7136H63.7701V40.2041H60.407V34.1329Z" fill="#E84031"/>
<path opacity="0.7" d="M27.2245 34.7335C28.5301 35.5539 29.1029 36.7024 29.1029 38.3498C28.0219 39.7098 26.1223 40.4739 23.89 40.4739C20.1324 40.4739 17.5028 38.6565 16.9189 35.4994H20.5269C20.9916 36.9491 22.2214 37.6208 23.8632 37.6208C25.8673 37.6208 27.1996 36.5703 27.2264 34.727" fill="#E84031"/>
<path opacity="0.7" d="M20.2062 29.0207C19.6103 28.6724 19.1206 28.1725 18.7898 27.5729C18.46 26.9732 18.3011 26.2978 18.3297 25.6169C19.3728 24.2679 21.1875 23.4438 23.3994 23.4438C27.2273 23.4438 29.442 25.4303 29.988 28.2261H26.5168C26.1342 27.1239 25.1752 26.2655 23.428 26.2655C21.5607 26.2655 20.2875 27.3336 20.2136 29.0207" fill="#E84031"/>
</g>
<defs>
<clipPath id="clip0_53_43">
<rect width="120" height="64" fill="white"/>
</clipPath>
</defs>
</svg>
