<svg width="167" height="64" viewBox="0 0 167 64" fill="none" xmlns="http://www.w3.org/2000/svg">
<g clip-path="url(#clip0_53_39)">
<path d="M17.183 21.5C12.6 21.5 9.737 23.791 8.59 28.373C10.309 26.083 12.313 25.223 14.604 25.796C15.911 26.122 16.846 27.07 17.879 28.12C19.564 29.83 21.514 31.809 25.773 31.809C30.355 31.809 33.218 29.518 34.364 24.937C32.646 27.227 30.641 28.087 28.351 27.513C27.043 27.187 26.108 26.239 25.075 25.189C23.39 23.48 21.44 21.5 17.183 21.5ZM8.59 31.809C4.01 31.809 1.145 34.1 0 38.682C1.718 36.391 3.723 35.532 6.013 36.105C7.321 36.431 8.256 37.379 9.289 38.429C10.974 40.139 12.924 42.118 17.183 42.118C21.765 42.118 24.628 39.828 25.773 35.246C24.055 37.536 22.051 38.396 19.76 37.823C18.453 37.496 17.518 36.547 16.484 35.498C14.8 33.788 12.849 31.809 8.59 31.809Z" fill="#00BCFF"/>
<path d="M51.547 30.188H48.547V35.991C48.547 37.539 49.563 37.515 51.547 37.418V39.764C47.532 40.247 45.936 39.135 45.936 35.991V30.188H43.71V27.672H45.935V24.425L48.547 23.651V27.672H51.545V30.188H51.547ZM62.977 27.672H65.587V39.764H62.977V38.023C62.057 39.303 60.631 40.078 58.744 40.078C55.456 40.078 52.723 37.298 52.723 33.718C52.723 30.115 55.456 27.358 58.744 27.358C60.63 27.358 62.057 28.132 62.977 29.39V27.672ZM59.156 37.587C61.332 37.587 62.976 35.967 62.976 33.717C62.976 31.469 61.332 29.849 59.156 29.849C56.979 29.849 55.335 31.469 55.335 33.718C55.335 35.967 56.979 37.588 59.155 37.588L59.156 37.587ZM69.94 25.86C69.499 25.8551 69.0775 25.6776 68.7657 25.3656C68.4539 25.0537 68.2767 24.632 68.272 24.191C68.274 23.748 68.451 23.323 68.763 23.011C68.9174 22.8561 69.1009 22.7333 69.3028 22.6494C69.5048 22.5656 69.7213 22.5224 69.94 22.5224C70.1587 22.5224 70.3752 22.5656 70.5772 22.6494C70.7792 22.7333 70.9626 22.8561 71.117 23.011C71.429 23.323 71.607 23.748 71.608 24.191C71.608 25.086 70.858 25.86 69.94 25.86ZM68.634 39.765V27.672H71.246V39.764L68.634 39.765ZM74.269 39.765V22.109H76.88V39.763H74.27L74.269 39.765ZM93.834 27.672H96.591L92.794 39.764H90.231L87.715 31.614L85.176 39.764H82.613L78.816 27.672H81.573L83.919 36.015L86.459 27.672H88.949L91.463 36.015L93.834 27.672ZM99.83 25.86C98.91 25.86 98.161 25.086 98.161 24.191C98.163 23.748 98.341 23.323 98.653 23.011C98.8074 22.856 98.9908 22.733 99.1928 22.6491C99.3947 22.5652 99.6113 22.522 99.83 22.522C100.049 22.522 100.265 22.5652 100.467 22.6491C100.669 22.733 100.853 22.856 101.007 23.011C101.32 23.323 101.497 23.748 101.499 24.191C101.499 25.086 100.749 25.86 99.83 25.86ZM98.524 39.765V27.672H101.136V39.764L98.524 39.765ZM110.52 27.358C113.228 27.358 115.163 29.196 115.163 32.34V39.763H112.551V32.605C112.551 30.767 111.487 29.801 109.843 29.801C108.126 29.801 106.772 30.816 106.772 33.283V39.763H104.16V27.674H106.772V29.22C107.57 27.963 108.875 27.358 110.52 27.358ZM127.544 22.836H130.156V39.763H127.544V38.022C126.626 39.304 125.199 40.077 123.313 40.077C120.024 40.077 117.291 37.297 117.291 33.717C117.291 30.114 120.024 27.357 123.313 27.357C125.199 27.357 126.626 28.131 127.544 29.389V22.836ZM123.723 37.587C125.9 37.587 127.544 35.967 127.544 33.717C127.544 31.469 125.9 29.849 123.723 29.849C121.547 29.849 119.903 31.469 119.903 33.718C119.903 35.967 121.547 37.587 123.723 37.587ZM138.91 40.077C135.259 40.077 132.526 37.297 132.526 33.717C132.526 30.115 135.259 27.358 138.91 27.358C141.28 27.358 143.336 28.591 144.303 30.478L142.054 31.784C141.522 30.647 140.337 29.921 138.886 29.921C136.758 29.921 135.138 31.541 135.138 33.718C135.138 35.894 136.758 37.515 138.886 37.515C140.337 37.515 141.522 36.765 142.102 35.652L144.351 36.934C143.336 38.844 141.28 40.077 138.91 40.077ZM148.656 31.009C148.656 33.21 155.161 31.879 155.161 36.354C155.161 38.773 153.057 40.078 150.445 40.078C148.027 40.078 146.286 38.989 145.512 37.248L147.761 35.943C148.148 37.031 149.116 37.683 150.445 37.683C151.606 37.683 152.501 37.297 152.501 36.329C152.501 34.178 145.996 35.387 145.996 31.059C145.996 28.785 147.955 27.358 150.421 27.358C152.404 27.358 154.049 28.278 154.895 29.873L152.695 31.106C152.259 30.163 151.412 29.728 150.421 29.728C149.478 29.728 148.656 30.138 148.656 31.009ZM159.804 31.009C159.804 33.21 166.309 31.879 166.309 36.354C166.309 38.773 164.205 40.078 161.593 40.078C159.175 40.078 157.435 38.989 156.66 37.248L158.909 35.943C159.296 37.031 160.263 37.683 161.593 37.683C162.754 37.683 163.649 37.297 163.649 36.329C163.649 34.178 157.144 35.387 157.144 31.059C157.144 28.785 159.103 27.358 161.57 27.358C163.552 27.358 165.197 28.278 166.043 29.873L163.843 31.106C163.408 30.163 162.561 29.728 161.57 29.728C160.626 29.728 159.804 30.138 159.804 31.009Z" fill="#00BCFF"/>
</g>
<defs>
<clipPath id="clip0_53_39">
<rect width="167" height="21" fill="white" transform="translate(0 21.5)"/>
</clipPath>
</defs>
</svg>
