<svg width="120" height="64" viewBox="0 0 120 64" fill="none" xmlns="http://www.w3.org/2000/svg">
<path d="M69.5652 25.9131H61.7391V38.087H69.5652M99.1304 25.9131H91.3043V38.087H99.1304M96.5217 32H91.3043M66.9565 32H61.7391M106.087 38.087V25.9131L115.652 38.087V25.9131M19.1304 35.2174L28.6956 41.5652M19.1304 35.2174V28.7826M19.1304 35.2174L28.6956 28.7826M28.6956 41.5652L38.2608 35.2174M28.6956 41.5652V35.2174M38.2608 35.2174V28.7826M38.2608 35.2174L28.6956 28.7826M38.2608 28.7826L28.6956 22.4348M38.2608 28.7826L28.6956 35.1305L19.1304 28.7826M28.6956 22.4348L19.1304 28.7826M28.6956 22.4348V28.7826M76.5217 32.8696H81.7391C83.6521 32.8696 85.2173 31.3044 85.2173 29.3913C85.2173 27.4783 83.6521 25.9131 81.7391 25.9131H76.5217V38.087M13.0434 27.6522C11.913 26.5218 10.4347 25.9131 8.6956 25.9131C5.21734 25.9131 2.60864 28.5218 2.60864 32C2.60864 35.4783 5.21734 38.087 8.6956 38.087C10.4347 38.087 11.913 37.3913 13.0434 36.3479M55.6521 32C55.6521 35.4783 53.0434 38.087 49.5652 38.087H45.2173V25.9131H49.5652C53.0434 25.9131 55.6521 28.5218 55.6521 32Z" stroke="#6C6C6C" stroke-width="2.3" stroke-linecap="round" stroke-linejoin="round"/>
</svg>
