<svg width="19" height="19" viewBox="0 0 19 19" fill="none" xmlns="http://www.w3.org/2000/svg">
<g clip-path="url(#clip0_609_748)">
<path d="M5.5 13.5C5.5 15.386 5.5 16.328 6.086 16.914C6.672 17.5 7.614 17.5 9.5 17.5H13.5C15.386 17.5 16.328 17.5 16.914 16.914C17.5 16.328 17.5 15.386 17.5 13.5V9.5C17.5 7.614 17.5 6.672 16.914 6.086C16.328 5.5 15.386 5.5 13.5 5.5M5.5 13.5H9.5C11.386 13.5 12.328 13.5 12.914 12.914C13.5 12.328 13.5 11.386 13.5 9.5V5.5M5.5 13.5C3.614 13.5 2.672 13.5 2.086 12.914C1.5 12.328 1.5 11.386 1.5 9.5V5.5C1.5 3.614 1.5 2.672 2.086 2.086C2.672 1.5 3.614 1.5 5.5 1.5H9.5C11.386 1.5 12.328 1.5 12.914 2.086C13.5 2.672 13.5 3.614 13.5 5.5" stroke="#5E696E" stroke-width="1.5"/>
</g>
<defs>
<clipPath id="clip0_609_748">
<rect width="18" height="18" fill="white" transform="translate(0.5 0.5)"/>
</clipPath>
</defs>
</svg>
