<svg width="444" height="357" viewBox="0 0 444 357" fill="none" xmlns="http://www.w3.org/2000/svg">
<path d="M164.829 227.638H151.717V250.686H119.955V227.638H72.474V204.019L121.991 131.617H151.718V203.612H164.83V227.638H164.829ZM119.955 203.612V189.767C119.955 187.161 120.049 183.647 120.24 179.22C120.429 174.796 120.578 172.474 120.688 172.257H119.792C117.946 176.438 115.855 180.348 113.521 183.985L100.327 203.612H119.955Z" fill="#0F7ED9"/>
<path d="M259.22 191.314C259.22 212.381 255.69 227.814 248.633 237.615C241.575 247.415 230.769 252.314 216.22 252.314C201.994 252.314 191.271 247.198 184.05 236.962C176.828 226.729 173.218 211.511 173.218 191.313C173.218 170.138 176.747 154.611 183.806 144.728C190.863 134.847 201.669 129.906 216.22 129.906C230.391 129.906 241.1 135.051 248.348 145.339C255.596 155.63 259.22 170.953 259.22 191.314ZM205.224 191.314C205.224 204.78 206.065 214.037 207.749 219.086C209.431 224.135 212.255 226.66 216.219 226.66C220.236 226.66 223.072 224.054 224.729 218.841C226.385 213.629 227.213 204.454 227.213 191.314C227.213 178.121 226.371 168.876 224.689 163.583C223.005 158.289 220.181 155.643 216.219 155.643C212.255 155.643 209.431 158.196 207.749 163.298C206.065 168.402 205.224 177.74 205.224 191.314Z" fill="#0F7ED9"/>
<path d="M360.289 227.638H347.178V250.686H315.415V227.638H267.934V204.019L317.451 131.617H347.178V203.612H360.289V227.638ZM315.415 203.612V189.767C315.415 187.161 315.509 183.647 315.7 179.22C315.889 174.796 316.038 172.474 316.148 172.257H315.252C313.406 176.438 311.314 180.348 308.981 183.985L295.788 203.612H315.415Z" fill="#0F7ED9"/>
<path d="M24.75 158.036H72.887" stroke="#5E696E" stroke-width="2.1628" stroke-miterlimit="10" stroke-linecap="round" stroke-linejoin="round"/>
<path d="M84.441 158.036H94.717" stroke="#5E696E" stroke-width="2.1628" stroke-miterlimit="10" stroke-linecap="round" stroke-linejoin="round"/>
<path d="M16.033 144.488H102.208" stroke="#5E696E" stroke-width="2.1628" stroke-miterlimit="10" stroke-linecap="round" stroke-linejoin="round"/>
<path d="M8.94 144.488H1.847" stroke="#5E696E" stroke-width="2.1628" stroke-miterlimit="10" stroke-linecap="round" stroke-linejoin="round"/>
<path d="M16.033 131.617H44.643" stroke="#5E696E" stroke-width="2.1628" stroke-miterlimit="10" stroke-linecap="round" stroke-linejoin="round"/>
<path d="M52.303 131.617H112.388" stroke="#5E696E" stroke-width="2.1628" stroke-miterlimit="10" stroke-linecap="round" stroke-linejoin="round"/>
<path d="M365.009 265.524H416.521" stroke="#5E696E" stroke-width="2.1628" stroke-miterlimit="10" stroke-linecap="round" stroke-linejoin="round"/>
<path d="M424.899 265.524H432.35" stroke="#5E696E" stroke-width="2.1628" stroke-miterlimit="10" stroke-linecap="round" stroke-linejoin="round"/>
<path d="M375.296 251.975H442.803" stroke="#5E696E" stroke-width="2.1628" stroke-miterlimit="10" stroke-linecap="round" stroke-linejoin="round"/>
<path d="M370.152 251.975H365.009" stroke="#5E696E" stroke-width="2.1628" stroke-miterlimit="10" stroke-linecap="round" stroke-linejoin="round"/>
<path d="M365.009 239.104H396.041" stroke="#5E696E" stroke-width="2.1628" stroke-miterlimit="10" stroke-linecap="round" stroke-linejoin="round"/>
<path d="M401.595 239.104H424.899" stroke="#5E696E" stroke-width="2.1628" stroke-miterlimit="10" stroke-linecap="round" stroke-linejoin="round"/>
<path d="M170.994 227.183H157.882V250.231H126.12V227.183H78.639V203.564L128.156 131.162H157.883V203.157H170.995L170.994 227.183ZM126.119 203.157V189.312C126.119 186.706 126.213 183.192 126.404 178.765C126.593 174.341 126.742 172.019 126.852 171.802H125.956C124.11 175.983 122.019 179.893 119.685 183.53L106.491 203.157H126.119Z" stroke="#5E696E" stroke-width="3.2675" stroke-miterlimit="10"/>
<path d="M265.384 190.859C265.384 211.926 261.854 227.359 254.797 237.16C247.739 246.96 236.933 251.859 222.384 251.859C208.158 251.859 197.435 246.743 190.214 236.507C182.992 226.274 179.382 211.056 179.382 190.858C179.382 169.683 182.911 154.156 189.969 144.273C197.026 134.392 207.832 129.451 222.383 129.451C236.554 129.451 247.263 134.596 254.511 144.884C261.761 155.175 265.384 170.499 265.384 190.859ZM211.389 190.859C211.389 204.325 212.23 213.582 213.914 218.631C215.596 223.68 218.42 226.205 222.384 226.205C226.401 226.205 229.237 223.599 230.894 218.386C232.55 213.174 233.378 203.999 233.378 190.858C233.378 177.665 232.536 168.42 230.854 163.127C229.17 157.833 226.346 155.187 222.384 155.187C218.42 155.187 215.596 157.74 213.914 162.842C212.23 167.947 211.389 177.286 211.389 190.859Z" stroke="#5E696E" stroke-width="3.2675" stroke-miterlimit="10"/>
<path d="M366.454 227.183H353.342V250.231H321.58V227.183H274.099V203.564L323.616 131.162H353.343V203.157H366.455L366.454 227.183ZM321.58 203.157V189.312C321.58 186.706 321.674 183.192 321.865 178.765C322.054 174.341 322.203 172.019 322.313 171.802H321.417C319.571 175.983 317.479 179.893 315.146 183.53L301.953 203.157H321.58Z" stroke="#5E696E" stroke-width="3.2675" stroke-miterlimit="10"/>
<path d="M162.657 301.215V274.171H178.979V277.076H165.932V286.214H178.134V289.119H165.932V298.31H179.19V301.215H162.657ZM184.881 301.215V274.171H194.019C196.132 274.171 197.866 274.532 199.222 275.254C200.578 275.967 201.581 276.948 202.233 278.198C202.884 279.449 203.21 280.87 203.21 282.464C203.21 284.057 202.884 285.47 202.233 286.703C201.581 287.935 200.582 288.903 199.235 289.608C197.888 290.303 196.167 290.651 194.072 290.651H186.677V287.693H193.966C195.41 287.693 196.572 287.482 197.453 287.059C198.342 286.636 198.984 286.038 199.38 285.263C199.785 284.48 199.988 283.547 199.988 282.464C199.988 281.381 199.785 280.435 199.38 279.625C198.976 278.815 198.328 278.19 197.439 277.749C196.55 277.301 195.375 277.076 193.914 277.076H188.156V301.215H184.881ZM197.611 289.066L204.266 301.215H200.463L193.914 289.066H197.611ZM208.667 301.215V274.171H217.805C219.918 274.171 221.652 274.532 223.008 275.254C224.363 275.967 225.367 276.948 226.018 278.198C226.67 279.449 226.996 280.87 226.996 282.464C226.996 284.057 226.67 285.47 226.018 286.703C225.367 287.935 224.368 288.903 223.021 289.608C221.674 290.303 219.953 290.651 217.858 290.651H210.463V287.693H217.752C219.196 287.693 220.358 287.482 221.238 287.059C222.127 286.636 222.77 286.038 223.166 285.263C223.571 284.48 223.774 283.547 223.774 282.464C223.774 281.381 223.571 280.435 223.166 279.625C222.761 278.815 222.114 278.19 221.225 277.749C220.336 277.301 219.161 277.076 217.699 277.076H211.942V301.215H208.667ZM221.397 289.066L228.052 301.215H224.249L217.699 289.066H221.397ZM255.271 287.693C255.271 290.545 254.756 293.01 253.726 295.088C252.696 297.165 251.283 298.768 249.487 299.894C247.691 301.021 245.64 301.585 243.334 301.585C241.027 301.585 238.976 301.021 237.18 299.894C235.384 298.768 233.971 297.165 232.941 295.088C231.911 293.01 231.396 290.545 231.396 287.693C231.396 284.841 231.911 282.376 232.941 280.298C233.971 278.22 235.384 276.618 237.18 275.491C238.976 274.365 241.027 273.801 243.334 273.801C245.64 273.801 247.691 274.365 249.487 275.491C251.283 276.618 252.696 278.22 253.726 280.298C254.756 282.376 255.271 284.841 255.271 287.693ZM252.102 287.693C252.102 285.351 251.71 283.375 250.926 281.764C250.152 280.153 249.1 278.934 247.77 278.106C246.45 277.278 244.971 276.865 243.334 276.865C241.696 276.865 240.213 277.278 238.883 278.106C237.563 278.934 236.511 280.153 235.727 281.764C234.953 283.375 234.565 285.351 234.565 287.693C234.565 290.035 234.953 292.011 235.727 293.622C236.511 295.233 237.563 296.452 238.883 297.28C240.213 298.107 241.696 298.521 243.334 298.521C244.971 298.521 246.45 298.107 247.77 297.28C249.1 296.452 250.152 295.233 250.926 293.622C251.71 292.011 252.102 290.035 252.102 287.693ZM260.777 301.215V274.171H269.915C272.028 274.171 273.762 274.532 275.118 275.254C276.474 275.967 277.478 276.948 278.129 278.198C278.78 279.449 279.106 280.87 279.106 282.464C279.106 284.057 278.78 285.47 278.129 286.703C277.478 287.935 276.478 288.903 275.131 289.608C273.784 290.303 272.063 290.651 269.968 290.651H262.573V287.693H269.863C271.306 287.693 272.468 287.482 273.349 287.059C274.238 286.636 274.881 286.038 275.277 285.263C275.682 284.48 275.884 283.547 275.884 282.464C275.884 281.381 275.682 280.435 275.277 279.625C274.872 278.815 274.225 278.19 273.336 277.749C272.446 277.301 271.271 277.076 269.81 277.076H264.052V301.215H260.777ZM273.507 289.066L280.163 301.215H276.359L269.81 289.066H273.507Z" fill="#5E696E"/>
<path d="M387.489 155.1V144.061" stroke="#5E696E" stroke-width="2.1628" stroke-miterlimit="10" stroke-linecap="round" stroke-linejoin="round"/>
<path d="M379.783 158.292L371.978 150.486" stroke="#5E696E" stroke-width="2.1628" stroke-miterlimit="10" stroke-linecap="round" stroke-linejoin="round"/>
<path d="M376.592 165.998H365.553" stroke="#5E696E" stroke-width="2.1628" stroke-miterlimit="10" stroke-linecap="round" stroke-linejoin="round"/>
<path d="M379.783 173.703L371.978 181.509" stroke="#5E696E" stroke-width="2.1628" stroke-miterlimit="10" stroke-linecap="round" stroke-linejoin="round"/>
<path d="M387.489 176.895V187.934" stroke="#5E696E" stroke-width="2.1628" stroke-miterlimit="10" stroke-linecap="round" stroke-linejoin="round"/>
<path d="M395.195 173.703L403.001 181.509" stroke="#5E696E" stroke-width="2.1628" stroke-miterlimit="10" stroke-linecap="round" stroke-linejoin="round"/>
<path d="M398.387 165.998H409.426" stroke="#5E696E" stroke-width="2.1628" stroke-miterlimit="10" stroke-linecap="round" stroke-linejoin="round"/>
<path d="M395.195 158.292L403.001 150.486" stroke="#5E696E" stroke-width="2.1628" stroke-miterlimit="10" stroke-linecap="round" stroke-linejoin="round"/>
<path d="M41.261 210.066V202.087" stroke="#5E696E" stroke-width="2.1628" stroke-miterlimit="10" stroke-linecap="round" stroke-linejoin="round"/>
<path d="M35.691 212.374L30.049 206.732" stroke="#5E696E" stroke-width="2.1628" stroke-miterlimit="10" stroke-linecap="round" stroke-linejoin="round"/>
<path d="M33.384 217.944H25.405" stroke="#5E696E" stroke-width="2.1628" stroke-miterlimit="10" stroke-linecap="round" stroke-linejoin="round"/>
<path d="M35.691 223.514L30.049 229.156" stroke="#5E696E" stroke-width="2.1628" stroke-miterlimit="10" stroke-linecap="round" stroke-linejoin="round"/>
<path d="M41.261 225.821V233.8" stroke="#5E696E" stroke-width="2.1628" stroke-miterlimit="10" stroke-linecap="round" stroke-linejoin="round"/>
<path d="M46.831 223.514L52.473 229.156" stroke="#5E696E" stroke-width="2.1628" stroke-miterlimit="10" stroke-linecap="round" stroke-linejoin="round"/>
<path d="M49.138 217.944H57.118" stroke="#5E696E" stroke-width="2.1628" stroke-miterlimit="10" stroke-linecap="round" stroke-linejoin="round"/>
<path d="M46.831 212.374L52.473 206.732" stroke="#5E696E" stroke-width="2.1628" stroke-miterlimit="10" stroke-linecap="round" stroke-linejoin="round"/>
<path d="M257.183 45.254V37.274" stroke="#5E696E" stroke-width="2.1628" stroke-miterlimit="10" stroke-linecap="round" stroke-linejoin="round"/>
<path d="M251.613 47.561L245.971 41.919" stroke="#5E696E" stroke-width="2.1628" stroke-miterlimit="10" stroke-linecap="round" stroke-linejoin="round"/>
<path d="M249.306 53.131H241.327" stroke="#5E696E" stroke-width="2.1628" stroke-miterlimit="10" stroke-linecap="round" stroke-linejoin="round"/>
<path d="M251.613 58.701L245.971 64.343" stroke="#5E696E" stroke-width="2.1628" stroke-miterlimit="10" stroke-linecap="round" stroke-linejoin="round"/>
<path d="M257.183 61.008V68.987" stroke="#5E696E" stroke-width="2.1628" stroke-miterlimit="10" stroke-linecap="round" stroke-linejoin="round"/>
<path d="M262.753 58.701L268.395 64.343" stroke="#5E696E" stroke-width="2.1628" stroke-miterlimit="10" stroke-linecap="round" stroke-linejoin="round"/>
<path d="M265.06 53.131H273.039" stroke="#5E696E" stroke-width="2.1628" stroke-miterlimit="10" stroke-linecap="round" stroke-linejoin="round"/>
<path d="M262.753 47.561L268.395 41.919" stroke="#5E696E" stroke-width="2.1628" stroke-miterlimit="10" stroke-linecap="round" stroke-linejoin="round"/>
<path d="M354.635 266.894H80.874V309.992H354.635V266.894Z" stroke="#5E696E" stroke-width="2.4187" stroke-miterlimit="10" stroke-linecap="round" stroke-linejoin="round"/>
<path d="M102.208 112.198V77.669H281.701V154.389" stroke="#5E696E" stroke-width="2.1628" stroke-miterlimit="10" stroke-linecap="round" stroke-linejoin="round"/>
<path d="M218.436 53.131V96.361H337.464V116.029" stroke="#5E696E" stroke-width="2.1628" stroke-miterlimit="10" stroke-linecap="round" stroke-linejoin="round"/>
<path d="M106.491 116.481C106.491 118.847 104.573 120.764 102.208 120.764C99.842 120.764 97.925 118.846 97.925 116.481C97.925 114.116 99.843 112.198 102.208 112.198C104.574 112.198 106.491 114.115 106.491 116.481Z" stroke="#5E696E" stroke-width="2.1628" stroke-miterlimit="10" stroke-linecap="round" stroke-linejoin="round"/>
<path d="M218.436 53.131C220.801 53.131 222.719 51.2134 222.719 48.848C222.719 46.4826 220.801 44.565 218.436 44.565C216.071 44.565 214.153 46.4826 214.153 48.848C214.153 51.2134 216.071 53.131 218.436 53.131Z" stroke="#5E696E" stroke-width="2.1628" stroke-miterlimit="10" stroke-linecap="round" stroke-linejoin="round"/>
<path d="M341.747 120.764C341.747 123.129 339.829 125.047 337.464 125.047C335.098 125.047 333.181 123.129 333.181 120.764C333.181 118.398 335.099 116.481 337.464 116.481C339.829 116.481 341.747 118.399 341.747 120.764Z" stroke="#5E696E" stroke-width="2.1628" stroke-miterlimit="10" stroke-linecap="round" stroke-linejoin="round"/>
<path d="M285.984 159.383C285.984 161.748 284.066 163.666 281.701 163.666C279.336 163.666 277.418 161.748 277.418 159.383C277.418 157.017 279.336 155.1 281.701 155.1C284.066 155.1 285.984 157.018 285.984 159.383Z" stroke="#5E696E" stroke-width="2.1628" stroke-miterlimit="10" stroke-linecap="round" stroke-linejoin="round"/>
<path d="M74.295 245.164L64.161 255.298" stroke="#5E696E" stroke-width="2.1628" stroke-miterlimit="10" stroke-linecap="round" stroke-linejoin="round"/>
<path d="M64.161 245.164L74.295 255.298" stroke="#5E696E" stroke-width="2.1628" stroke-miterlimit="10" stroke-linecap="round" stroke-linejoin="round"/>
<path d="M79.362 98L69.228 108.135" stroke="#5E696E" stroke-width="2.1628" stroke-miterlimit="10" stroke-linecap="round" stroke-linejoin="round"/>
<path d="M69.228 98L79.362 108.135" stroke="#5E696E" stroke-width="2.1628" stroke-miterlimit="10" stroke-linecap="round" stroke-linejoin="round"/>
<path d="M408.068 212.876L397.933 223.011" stroke="#5E696E" stroke-width="2.1628" stroke-miterlimit="10" stroke-linecap="round" stroke-linejoin="round"/>
<path d="M397.933 212.876L408.068 223.011" stroke="#5E696E" stroke-width="2.1628" stroke-miterlimit="10" stroke-linecap="round" stroke-linejoin="round"/>
<path d="M120.47 40.161C117.238 40.161 114.28 41.324 111.983 43.25C109.637 36.188 102.989 31.09 95.14 31.09C86.353 31.09 79.075 37.479 77.653 45.861C76.727 45.596 75.752 45.445 74.74 45.445C68.897 45.445 64.161 50.182 64.161 56.024C64.161 61.399 68.173 65.827 73.363 66.504V66.604H120.47C127.772 66.604 133.692 60.685 133.692 53.382C133.692 46.081 127.772 40.161 120.47 40.161Z" stroke="#5E696E" stroke-width="2.2614" stroke-miterlimit="10" stroke-linecap="round" stroke-linejoin="round"/>
<path d="M365.605 107.417C367.953 107.417 370.102 108.262 371.771 109.661C373.475 104.531 378.305 100.827 384.007 100.827C390.391 100.827 395.678 105.469 396.711 111.558C397.384 111.365 398.092 111.256 398.827 111.256C403.072 111.256 406.513 114.697 406.513 118.942C406.513 122.847 403.599 126.064 399.828 126.555V126.627H365.606C360.301 126.627 356.001 122.326 356.001 117.022C356.001 111.718 360.3 107.417 365.605 107.417Z" stroke="#5E696E" stroke-width="2.1628" stroke-miterlimit="10" stroke-linecap="round" stroke-linejoin="round"/>
<path d="M412.789 289.113C410.82 289.113 409.018 289.822 407.618 290.995C406.189 286.693 402.138 283.586 397.356 283.586C392.002 283.586 387.568 287.479 386.702 292.586C386.138 292.425 385.544 292.333 384.927 292.333C381.367 292.333 378.481 295.219 378.481 298.779C378.481 302.054 380.925 304.752 384.088 305.164V305.225H412.788C417.237 305.225 420.844 301.619 420.844 297.17C420.844 292.72 417.238 289.113 412.789 289.113Z" stroke="#5E696E" stroke-width="2.1628" stroke-miterlimit="10" stroke-linecap="round" stroke-linejoin="round"/>
<path d="M23.253 272.114C25.601 272.114 27.75 272.959 29.419 274.358C31.123 269.228 35.953 265.524 41.655 265.524C48.039 265.524 53.326 270.166 54.359 276.255C55.032 276.062 55.74 275.953 56.475 275.953C60.72 275.953 64.161 279.394 64.161 283.639C64.161 287.544 61.247 290.761 57.476 291.252V291.324H23.253C17.948 291.324 13.648 287.024 13.648 281.719C13.648 276.414 17.948 272.114 23.253 272.114Z" stroke="#5E696E" stroke-width="2.1628" stroke-miterlimit="10" stroke-linecap="round" stroke-linejoin="round"/>
<path d="M133.692 33.818C133.692 33.818 194.132 -15.459 276.252 7.243C362.515 31.09 379.783 92.6 379.783 92.6" stroke="#5E696E" stroke-width="2.1628" stroke-miterlimit="10" stroke-linecap="round" stroke-linejoin="round" stroke-dasharray="3.27 7.62"/>
<path d="M42.433 177.04C19.002 180.674 7.223 230.403 33.579 250.144" stroke="#5E696E" stroke-width="2.0166" stroke-miterlimit="10" stroke-linecap="round" stroke-linejoin="round" stroke-dasharray="3.05 7.11"/>
<path d="M337.464 320.526C337.464 320.526 377.602 338.072 395.196 313.593" stroke="#5E696E" stroke-width="2.1628" stroke-miterlimit="10" stroke-linecap="round" stroke-linejoin="round" stroke-dasharray="3.27 7.62"/>
<path d="M146.513 120.764V95.418" stroke="#5E696E" stroke-width="2.1628" stroke-miterlimit="10" stroke-linecap="round" stroke-linejoin="round"/>
<path d="M140.395 120.764V108.135" stroke="#5E696E" stroke-width="2.1628" stroke-miterlimit="10" stroke-linecap="round" stroke-linejoin="round"/>
<path d="M239.67 126.628V108.091" stroke="#5E696E" stroke-width="2.1628" stroke-miterlimit="10" stroke-linecap="round" stroke-linejoin="round"/>
<path d="M232.72 125.047V117.359" stroke="#5E696E" stroke-width="2.1628" stroke-miterlimit="10" stroke-linecap="round" stroke-linejoin="round"/>
<path d="M226.554 125.047V112.198" stroke="#5E696E" stroke-width="2.1628" stroke-miterlimit="10" stroke-linecap="round" stroke-linejoin="round"/>
<path d="M152.394 120.764V108.091" stroke="#5E696E" stroke-width="2.1628" stroke-miterlimit="10" stroke-linecap="round" stroke-linejoin="round"/>
<path d="M320.395 124.292V118.622" stroke="#5E696E" stroke-width="2.1628" stroke-miterlimit="10" stroke-linecap="round" stroke-linejoin="round"/>
<path d="M314.277 124.292V110.482" stroke="#5E696E" stroke-width="2.1628" stroke-miterlimit="10" stroke-linecap="round" stroke-linejoin="round"/>
<path d="M326.276 124.292V114.428" stroke="#5E696E" stroke-width="2.1628" stroke-miterlimit="10" stroke-linecap="round" stroke-linejoin="round"/>
</svg>
