<?xml version="1.0" standalone="no"?>
<!DOCTYPE svg PUBLIC "-//W3C//DTD SVG 20010904//EN"
 "http://www.w3.org/TR/2001/REC-SVG-20010904/DTD/svg10.dtd">
<svg version="1.0" xmlns="http://www.w3.org/2000/svg"
 width="200.000000pt" height="200.000000pt" viewBox="0 0 200.000000 200.000000"
 preserveAspectRatio="xMidYMid meet">

<g transform="translate(0.000000,200.000000) scale(0.100000,-0.100000)"
fill="#000000" stroke="none">
<path d="M0 1000 l0 -1000 1000 0 1000 0 0 1000 0 1000 -1000 0 -1000 0 0
-1000z m1275 460 c32 -33 35 -23 -45 -119 l-45 -54 35 18 c19 10 75 40 123 67
49 28 90 48 91 47 9 -10 36 -69 36 -78 0 -5 -101 -65 -226 -132 l-225 -123
-118 -140 c-66 -78 -118 -142 -116 -144 6 -6 632 363 659 389 l29 28 34 -26
c36 -28 37 -54 3 -83 -14 -12 -71 -83 -224 -279 -5 -7 35 14 89 48 l100 60 17
-22 c9 -12 27 -34 38 -49 l21 -28 -86 -140 c-48 -77 -91 -142 -96 -146 -8 -4
-25 5 -77 42 -2 1 17 33 41 70 53 83 72 118 60 111 -4 -2 -68 -41 -141 -86
-73 -45 -137 -82 -142 -84 -5 -1 -21 16 -34 38 l-25 41 91 114 c105 135 135
176 122 168 -5 -3 -164 -97 -353 -207 l-344 -201 -29 27 c-15 15 -28 29 -28
33 0 3 60 78 134 165 73 88 132 161 131 163 -2 2 -56 -26 -121 -62 l-118 -65
-31 36 -31 36 108 144 c60 79 107 143 104 143 -2 0 -56 -27 -120 -61 l-116
-60 -22 45 -22 45 110 144 c116 153 111 150 163 109 l24 -19 -46 -61 c-26 -33
-47 -63 -47 -66 0 -3 83 37 186 90 102 53 186 95 188 93 8 -9 36 -69 36 -77 0
-4 -28 -22 -62 -38 -57 -27 -69 -39 -165 -166 -57 -76 -102 -138 -99 -138 2 0
63 32 134 70 l130 71 137 164 c75 91 140 165 144 165 4 0 20 -13 36 -30z"/>
</g>
</svg>
