<svg width="24" height="24" viewBox="0 0 24 24" fill="none" xmlns="http://www.w3.org/2000/svg">
<path d="M19.9321 13.041C19.7433 14.481 19.166 15.8424 18.2622 16.9792C17.3585 18.116 16.1623 18.9854 14.802 19.494C13.4418 20.0027 11.9687 20.1315 10.5407 19.8666C9.11282 19.6017 7.78395 18.9531 6.69664 17.9903C5.60933 17.0276 4.8046 15.787 4.36876 14.4017C3.93292 13.0163 3.8824 11.5385 4.22264 10.1266C4.56287 8.71473 5.28102 7.42211 6.30006 6.38737C7.3191 5.35263 8.60059 4.6148 10.0071 4.25301C13.9061 3.25301 17.9421 5.26001 19.4321 9.00001" stroke="#0F7ED9" stroke-width="1.5" stroke-linecap="round" stroke-linejoin="round"/>
<path d="M20 4V9H15" stroke="#0F7ED9" stroke-width="1.5" stroke-linecap="round" stroke-linejoin="round"/>
</svg>
