<svg width="24" height="24" viewBox="0 0 24 24" fill="none" xmlns="http://www.w3.org/2000/svg">
<path d="M16 9C16.5933 9 17.1734 9.17595 17.6667 9.50559C18.1601 9.83524 18.5446 10.3038 18.7716 10.8519C18.9987 11.4001 19.0581 12.0033 18.9424 12.5853C18.8266 13.1672 18.5409 13.7018 18.1213 14.1213C17.7018 14.5409 17.1672 14.8266 16.5853 14.9424C16.0033 15.0581 15.4001 14.9987 14.8519 14.7716C14.3038 14.5446 13.8352 14.1601 13.5056 13.6667C13.1759 13.1734 13 12.5933 13 12L13.005 11.824C13.0499 11.0601 13.385 10.3422 13.9417 9.81728C14.4985 9.29233 15.2348 8.99996 16 9Z" fill="#0F7ED9"/>
<path d="M16 5C17.8565 5 19.637 5.7375 20.9497 7.05025C22.2625 8.36301 23 10.1435 23 12C23 13.8565 22.2625 15.637 20.9497 16.9497C19.637 18.2625 17.8565 19 16 19H8C6.14348 19 4.36301 18.2625 3.05025 16.9497C1.7375 15.637 1 13.8565 1 12C1 10.1435 1.7375 8.36301 3.05025 7.05025C4.36301 5.7375 6.14348 5 8 5H16ZM16 7H8C6.67392 7 5.40215 7.52678 4.46447 8.46447C3.52678 9.40215 3 10.6739 3 12C3 13.3261 3.52678 14.5979 4.46447 15.5355C5.40215 16.4732 6.67392 17 8 17H16C17.3261 17 18.5979 16.4732 19.5355 15.5355C20.4732 14.5979 21 13.3261 21 12C21 10.6739 20.4732 9.40215 19.5355 8.46447C18.5979 7.52678 17.3261 7 16 7Z" fill="#0F7ED9"/>
</svg>
