<svg width="169" height="36" viewBox="0 0 169 36" fill="none" xmlns="http://www.w3.org/2000/svg">
<path d="M18 0C27.9411 0 36 8.05887 36 18C36 27.9411 27.9411 36 18 36C16.5155 36 15.0734 35.8184 13.6934 35.4795V0.519531C15.0733 0.180706 16.5155 0 18 0ZM11.626 34.8369C4.83123 32.2632 0 25.6966 0 18C0 10.3033 4.83106 3.73571 11.626 1.16211V34.8369Z" fill="url(#paint0_linear_609_707)"/>
<path d="M53.7045 26.5H47.517V9.04545H53.7557C55.5114 9.04545 57.0227 9.39489 58.2898 10.0938C59.5568 10.7869 60.5313 11.7841 61.2131 13.0852C61.9006 14.3864 62.2443 15.9432 62.2443 17.7557C62.2443 19.5739 61.9006 21.1364 61.2131 22.4432C60.5313 23.75 59.5511 24.7528 58.2727 25.4517C57 26.1506 55.4773 26.5 53.7045 26.5ZM51.2074 23.3381H53.5511C54.642 23.3381 55.5597 23.1449 56.304 22.7585C57.054 22.3665 57.6165 21.7614 57.9915 20.9432C58.3722 20.1193 58.5625 19.0568 58.5625 17.7557C58.5625 16.4659 58.3722 15.4119 57.9915 14.5938C57.6165 13.7756 57.0568 13.1733 56.3125 12.7869C55.5682 12.4006 54.6506 12.2074 53.5597 12.2074H51.2074V23.3381ZM70.8246 26.7557C69.5007 26.7557 68.3558 26.4744 67.3899 25.9119C66.4297 25.3437 65.6882 24.554 65.1655 23.5426C64.6428 22.5256 64.3814 21.3466 64.3814 20.0057C64.3814 18.6534 64.6428 17.4716 65.1655 16.4602C65.6882 15.4432 66.4297 14.6534 67.3899 14.0909C68.3558 13.5227 69.5007 13.2386 70.8246 13.2386C72.1484 13.2386 73.2905 13.5227 74.2507 14.0909C75.2166 14.6534 75.9609 15.4432 76.4837 16.4602C77.0064 17.4716 77.2678 18.6534 77.2678 20.0057C77.2678 21.3466 77.0064 22.5256 76.4837 23.5426C75.9609 24.554 75.2166 25.3437 74.2507 25.9119C73.2905 26.4744 72.1484 26.7557 70.8246 26.7557ZM70.8416 23.9432C71.4439 23.9432 71.9467 23.7727 72.3501 23.4318C72.7536 23.0852 73.0575 22.6136 73.2621 22.017C73.4723 21.4205 73.5774 20.7415 73.5774 19.9801C73.5774 19.2188 73.4723 18.5398 73.2621 17.9432C73.0575 17.3466 72.7536 16.875 72.3501 16.5284C71.9467 16.1818 71.4439 16.0085 70.8416 16.0085C70.2337 16.0085 69.7223 16.1818 69.3075 16.5284C68.8984 16.875 68.5888 17.3466 68.3786 17.9432C68.174 18.5398 68.0717 19.2188 68.0717 19.9801C68.0717 20.7415 68.174 21.4205 68.3786 22.017C68.5888 22.6136 68.8984 23.0852 69.3075 23.4318C69.7223 23.7727 70.2337 23.9432 70.8416 23.9432ZM85.5433 26.7557C84.2024 26.7557 83.049 26.4716 82.0831 25.9034C81.1229 25.3295 80.3842 24.5341 79.8672 23.517C79.3558 22.5 79.1001 21.3295 79.1001 20.0057C79.1001 18.6648 79.3587 17.4886 79.8757 16.4773C80.3984 15.4602 81.1399 14.6676 82.1001 14.0994C83.0604 13.5256 84.2024 13.2386 85.5263 13.2386C86.6683 13.2386 87.6683 13.446 88.5263 13.8608C89.3842 14.2756 90.0632 14.858 90.5632 15.608C91.0632 16.358 91.3388 17.2386 91.3899 18.25H87.9638C87.8672 17.5966 87.6115 17.071 87.1967 16.6733C86.7876 16.2699 86.2507 16.0682 85.5859 16.0682C85.0234 16.0682 84.532 16.2216 84.1115 16.5284C83.6967 16.8295 83.3729 17.2699 83.1399 17.8494C82.907 18.429 82.7905 19.1307 82.7905 19.9545C82.7905 20.7898 82.9041 21.5 83.1314 22.0852C83.3643 22.6705 83.6911 23.1165 84.1115 23.4233C84.532 23.7301 85.0234 23.8835 85.5859 23.8835C86.0007 23.8835 86.3729 23.7983 86.7024 23.6278C87.0376 23.4574 87.3132 23.2102 87.5291 22.8864C87.7507 22.5568 87.8956 22.1619 87.9638 21.7017H91.3899C91.3331 22.7017 91.0604 23.5824 90.5717 24.3438C90.0888 25.0994 89.4212 25.6903 88.5689 26.1165C87.7166 26.5426 86.7081 26.7557 85.5433 26.7557ZM104.607 17.142L101.283 17.3466C101.226 17.0625 101.104 16.8068 100.916 16.5795C100.729 16.3466 100.482 16.1619 100.175 16.0256C99.8736 15.8835 99.5128 15.8125 99.0923 15.8125C98.5298 15.8125 98.0554 15.9318 97.669 16.1705C97.2827 16.4034 97.0895 16.7159 97.0895 17.108C97.0895 17.4205 97.2145 17.6847 97.4645 17.9006C97.7145 18.1165 98.1435 18.2898 98.7514 18.4205L101.121 18.8977C102.393 19.1591 103.342 19.5795 103.967 20.1591C104.592 20.7386 104.905 21.5 104.905 22.4432C104.905 23.3011 104.652 24.054 104.146 24.7017C103.646 25.3494 102.959 25.8551 102.084 26.2188C101.214 26.5767 100.212 26.7557 99.0753 26.7557C97.3423 26.7557 95.9616 26.3949 94.9332 25.6733C93.9105 24.946 93.3111 23.9574 93.1349 22.7074L96.706 22.5199C96.8139 23.0483 97.0753 23.4517 97.4901 23.7301C97.9048 24.0028 98.4361 24.1392 99.0838 24.1392C99.7202 24.1392 100.232 24.017 100.618 23.7727C101.01 23.5227 101.209 23.2017 101.214 22.8097C101.209 22.4801 101.07 22.2102 100.797 22C100.524 21.7841 100.104 21.6193 99.5355 21.5057L97.2685 21.054C95.9901 20.7983 95.0384 20.3551 94.4134 19.7244C93.794 19.0937 93.4844 18.2898 93.4844 17.3125C93.4844 16.4716 93.7116 15.7472 94.1662 15.1392C94.6264 14.5312 95.2713 14.0625 96.1009 13.733C96.9361 13.4034 97.9134 13.2386 99.0327 13.2386C100.686 13.2386 101.987 13.5881 102.936 14.2869C103.891 14.9858 104.447 15.9375 104.607 17.142ZM114.154 13.4091V16.1364H106.271V13.4091H114.154ZM108.06 10.2727H111.691V22.4773C111.691 22.8125 111.742 23.0739 111.844 23.2614C111.947 23.4432 112.089 23.571 112.271 23.6449C112.458 23.7187 112.674 23.7557 112.918 23.7557C113.089 23.7557 113.259 23.7415 113.43 23.7131C113.6 23.679 113.731 23.6534 113.822 23.6364L114.393 26.3381C114.211 26.3949 113.955 26.4602 113.626 26.5341C113.296 26.6136 112.896 26.6619 112.424 26.679C111.549 26.7131 110.782 26.5966 110.123 26.3295C109.469 26.0625 108.961 25.6477 108.597 25.0852C108.234 24.5227 108.055 23.8125 108.06 22.9545V10.2727ZM120.252 26.7472C119.417 26.7472 118.673 26.6023 118.019 26.3125C117.366 26.017 116.849 25.5824 116.468 25.0085C116.093 24.429 115.906 23.7074 115.906 22.8438C115.906 22.1165 116.039 21.5057 116.306 21.0114C116.573 20.517 116.937 20.1193 117.397 19.8182C117.857 19.517 118.38 19.2898 118.965 19.1364C119.556 18.983 120.175 18.875 120.823 18.8125C121.585 18.733 122.198 18.6591 122.664 18.5909C123.13 18.517 123.468 18.4091 123.678 18.267C123.888 18.125 123.994 17.9148 123.994 17.6364V17.5852C123.994 17.0455 123.823 16.6278 123.482 16.3324C123.147 16.0369 122.67 15.8892 122.05 15.8892C121.397 15.8892 120.877 16.0341 120.491 16.3239C120.104 16.608 119.849 16.9659 119.724 17.3977L116.366 17.125C116.536 16.3295 116.871 15.642 117.371 15.0625C117.871 14.4773 118.516 14.0284 119.306 13.7159C120.102 13.3977 121.022 13.2386 122.067 13.2386C122.795 13.2386 123.491 13.3239 124.156 13.4943C124.826 13.6648 125.42 13.929 125.937 14.2869C126.46 14.6449 126.871 15.1051 127.173 15.6676C127.474 16.2244 127.624 16.892 127.624 17.6705V26.5H124.181V24.6847H124.079C123.869 25.0938 123.587 25.4545 123.235 25.767C122.883 26.0739 122.46 26.3153 121.965 26.4915C121.471 26.6619 120.9 26.7472 120.252 26.7472ZM121.292 24.2415C121.826 24.2415 122.298 24.1364 122.707 23.9261C123.116 23.7102 123.437 23.4205 123.67 23.0568C123.903 22.6932 124.019 22.2812 124.019 21.821V20.4318C123.906 20.5057 123.749 20.5739 123.55 20.6364C123.357 20.6932 123.138 20.7472 122.894 20.7983C122.65 20.8437 122.406 20.8864 122.161 20.9261C121.917 20.9602 121.695 20.9915 121.496 21.0199C121.07 21.0824 120.698 21.1818 120.38 21.3182C120.062 21.4545 119.815 21.6392 119.638 21.8722C119.462 22.0994 119.374 22.3835 119.374 22.7244C119.374 23.2188 119.553 23.5966 119.911 23.858C120.275 24.1136 120.735 24.2415 121.292 24.2415Z" fill="#131516"/>
<path d="M138.479 25.7212L135.777 18.3012H137.065L139.221 24.5172L141.377 18.3012H142.665L139.963 25.7212H138.479ZM148.449 25.7212V23.5652H143.395V22.4732L148.365 15.7812H149.653V22.3892H150.885V23.5652H149.653V25.7212H148.449ZM144.851 22.3892H148.449V17.6292L144.851 22.3892ZM152.204 25.7212V24.1392H153.786V25.7212H152.204ZM158.765 25.9452C157.962 25.9452 157.267 25.7352 156.679 25.3152C156.091 24.8952 155.634 24.2979 155.307 23.5232C154.99 22.7485 154.831 21.8292 154.831 20.7652C154.831 19.7012 154.99 18.7819 155.307 18.0072C155.634 17.2232 156.091 16.6212 156.679 16.2012C157.267 15.7719 157.962 15.5572 158.765 15.5572C159.577 15.5572 160.277 15.7719 160.865 16.2012C161.453 16.6212 161.906 17.2185 162.223 17.9932C162.55 18.7679 162.713 19.6919 162.713 20.7652C162.713 21.8292 162.55 22.7485 162.223 23.5232C161.906 24.2979 161.453 24.8952 160.865 25.3152C160.277 25.7352 159.577 25.9452 158.765 25.9452ZM158.765 24.7692C159.624 24.7692 160.286 24.4239 160.753 23.7332C161.22 23.0332 161.453 22.0439 161.453 20.7652C161.453 19.9065 161.346 19.1785 161.131 18.5812C160.926 17.9745 160.622 17.5172 160.221 17.2092C159.829 16.8919 159.344 16.7332 158.765 16.7332C158.196 16.7332 157.71 16.8919 157.309 17.2092C156.917 17.5172 156.614 17.9745 156.399 18.5812C156.194 19.1785 156.091 19.9065 156.091 20.7652C156.091 22.0439 156.324 23.0332 156.791 23.7332C157.258 24.4239 157.916 24.7692 158.765 24.7692ZM163.757 25.7212V24.1392H165.339V25.7212H163.757ZM167.468 25.7212V18.3572H165.396V17.3212H166.236C166.6 17.3212 166.889 17.2745 167.104 17.1812C167.328 17.0879 167.487 16.9292 167.58 16.7052C167.673 16.4812 167.72 16.1732 167.72 15.7812H168.672V25.7212H167.468Z" fill="#5E696E"/>
<defs>
<linearGradient id="paint0_linear_609_707" x1="18" y1="0" x2="18" y2="36" gradientUnits="userSpaceOnUse">
<stop stop-color="#419CE6"/>
<stop offset="1" stop-color="#0F7ED9"/>
</linearGradient>
</defs>
</svg>
