<svg width="20" height="21" viewBox="0 0 20 21" fill="none" xmlns="http://www.w3.org/2000/svg">
<path opacity="0.2" d="M6.25 4.25V12.375H2.5C2.33424 12.375 2.17527 12.3092 2.05806 12.1919C1.94085 12.0747 1.875 11.9158 1.875 11.75V4.875C1.875 4.70924 1.94085 4.55027 2.05806 4.43306C2.17527 4.31585 2.33424 4.25 2.5 4.25H6.25Z" fill="#0F7ED9"/>
<path d="M18.7359 12.7656L17.7984 5.26563C17.7413 4.81241 17.5208 4.39562 17.1781 4.09354C16.8354 3.79145 16.3943 3.62484 15.9375 3.625H2.5C2.16848 3.625 1.85054 3.7567 1.61612 3.99112C1.3817 4.22554 1.25 4.54348 1.25 4.875V11.75C1.25 12.0815 1.3817 12.3995 1.61612 12.6339C1.85054 12.8683 2.16848 13 2.5 13H5.86406L8.81563 18.9047C8.86759 19.0085 8.94744 19.0958 9.04625 19.1568C9.14505 19.2178 9.25889 19.2501 9.375 19.25C10.2038 19.25 10.9987 18.9208 11.5847 18.3347C12.1708 17.7487 12.5 16.9538 12.5 16.125V14.875H16.875C17.1411 14.8751 17.4041 14.8186 17.6467 14.7091C17.8892 14.5997 18.1057 14.44 18.2817 14.2404C18.4577 14.0409 18.5892 13.8062 18.6676 13.5519C18.7459 13.2976 18.7692 13.0296 18.7359 12.7656ZM5.625 11.75H2.5V4.875H5.625V11.75ZM17.3438 13.4133C17.2855 13.4803 17.2135 13.5339 17.1325 13.5704C17.0516 13.607 16.9638 13.6256 16.875 13.625H11.875C11.7092 13.625 11.5503 13.6908 11.4331 13.8081C11.3158 13.9253 11.25 14.0842 11.25 14.25V16.125C11.2501 16.5585 11.1 16.9787 10.8253 17.314C10.5505 17.6493 10.168 17.879 9.74297 17.9641L6.875 12.2273V4.875H15.9375C16.0898 4.87495 16.2368 4.93048 16.351 5.03118C16.4653 5.13187 16.5388 5.2708 16.5578 5.42188L17.4953 12.9219C17.507 13.0099 17.4995 13.0994 17.4734 13.1842C17.4472 13.269 17.403 13.3472 17.3438 13.4133Z" fill="#0F7ED9"/>
</svg>
