<svg width="20" height="21" viewBox="0 0 20 21" fill="none" xmlns="http://www.w3.org/2000/svg">
<path opacity="0.2" d="M18.75 9.875C18.75 10.7038 18.4208 11.4987 17.8347 12.0847C17.2487 12.6708 16.4538 13 15.625 13H12.5V6.75H15.625C16.4538 6.75 17.2487 7.07924 17.8347 7.66529C18.4208 8.25134 18.75 9.0462 18.75 9.875Z" fill="#0F7ED9"/>
<path d="M19.375 9.87503C19.374 8.88078 18.9785 7.92756 18.2755 7.22452C17.5725 6.52148 16.6192 6.12606 15.625 6.12503H12.5156C12.2883 6.11174 8.32656 5.83284 4.55391 2.66878C4.37172 2.51577 4.14966 2.41793 3.9138 2.38676C3.67794 2.35558 3.43809 2.39236 3.22241 2.49278C3.00673 2.59319 2.82418 2.75307 2.69622 2.95364C2.56825 3.1542 2.50018 3.38712 2.5 3.62503V16.125C2.50003 16.363 2.568 16.596 2.6959 16.7967C2.82381 16.9974 3.00635 17.1574 3.22205 17.2579C3.43776 17.3584 3.67768 17.3953 3.91361 17.3641C4.14954 17.333 4.37167 17.2351 4.55391 17.0821C7.50469 14.6071 10.5695 13.8977 11.875 13.6992V16.1774C11.8747 16.3833 11.9254 16.5862 12.0224 16.7679C12.1195 16.9496 12.2599 17.1045 12.4312 17.2188L13.2906 17.7914C13.4567 17.9023 13.647 17.9718 13.8454 17.994C14.0439 18.0162 14.2448 17.9906 14.4313 17.9192C14.6178 17.8478 14.7845 17.7328 14.9175 17.5837C15.0504 17.4347 15.1457 17.256 15.1953 17.0625L16.1148 13.5969C17.017 13.4769 17.8448 13.0333 18.4445 12.3487C19.0441 11.6642 19.3748 10.7851 19.375 9.87503ZM3.75 16.1196V3.62503C7.09453 6.43049 10.518 7.14065 11.875 7.31565V12.4313C10.5195 12.6094 7.09688 13.318 3.75 16.1196ZM13.9844 16.7446V16.7532L13.125 16.1805V13.625H14.8125L13.9844 16.7446ZM15.625 12.375H13.125V7.37503H15.625C16.288 7.37503 16.9239 7.63842 17.3928 8.10726C17.8616 8.5761 18.125 9.21198 18.125 9.87503C18.125 10.5381 17.8616 11.174 17.3928 11.6428C16.9239 12.1116 16.288 12.375 15.625 12.375Z" fill="#0F7ED9"/>
</svg>
