<svg width="20" height="21" viewBox="0 0 20 21" fill="none" xmlns="http://www.w3.org/2000/svg">
<path opacity="0.2" d="M6.25 8.625V16.75H2.5C2.33424 16.75 2.17527 16.6842 2.05806 16.5669C1.94085 16.4497 1.875 16.2908 1.875 16.125V9.25C1.875 9.08424 1.94085 8.92527 2.05806 8.80806C2.17527 8.69085 2.33424 8.625 2.5 8.625H6.25Z" fill="#0F7ED9"/>
<path d="M18.2812 6.75938C18.1053 6.55994 17.8888 6.40023 17.6464 6.29086C17.4039 6.18148 17.141 6.12495 16.875 6.125H12.5V4.875C12.5 4.0462 12.1708 3.25134 11.5847 2.66529C10.9987 2.07924 10.2038 1.75 9.375 1.75C9.25889 1.74992 9.14505 1.78218 9.04625 1.84317C8.94744 1.90417 8.86758 1.99148 8.81562 2.09531L5.86406 8H2.5C2.16848 8 1.85054 8.1317 1.61612 8.36612C1.3817 8.60054 1.25 8.91848 1.25 9.25V16.125C1.25 16.4565 1.3817 16.7745 1.61612 17.0089C1.85054 17.2433 2.16848 17.375 2.5 17.375H15.9375C16.3943 17.3752 16.8354 17.2085 17.1781 16.9065C17.5208 16.6044 17.7413 16.1876 17.7984 15.7344L18.7359 8.23438C18.7692 7.97033 18.7458 7.70224 18.6674 7.44792C18.589 7.1936 18.4574 6.95888 18.2812 6.75938ZM2.5 9.25H5.625V16.125H2.5V9.25ZM17.4953 8.07812L16.5578 15.5781C16.5388 15.7292 16.4653 15.8681 16.351 15.9688C16.2368 16.0695 16.0898 16.1251 15.9375 16.125H6.875V8.77266L9.74297 3.03594C10.168 3.12101 10.5505 3.35075 10.8253 3.68605C11.1 4.02135 11.2501 4.4415 11.25 4.875V6.75C11.25 6.91576 11.3158 7.07473 11.4331 7.19194C11.5503 7.30915 11.7092 7.375 11.875 7.375H16.875C16.9637 7.37497 17.0514 7.39382 17.1322 7.43028C17.2131 7.46675 17.2852 7.52001 17.3439 7.58652C17.4026 7.65303 17.4464 7.73126 17.4725 7.81602C17.4986 7.90078 17.5064 7.99013 17.4953 8.07812Z" fill="#0F7ED9"/>
</svg>
